<?xml version="1.0" encoding="utf-8"?>
<!-- Generator: Adobe Illustrator 24.1.2, SVG Export Plug-In . SVG Version: 6.00 Build 0)  -->
<svg version="1.1" id="Layer_1" xmlns="http://www.w3.org/2000/svg" xmlns:xlink="http://www.w3.org/1999/xlink" x="0px" y="0px"
	 viewBox="0 0 417.8 447.3" style="enable-background:new 0 0 417.8 447.3;" xml:space="preserve">
<style type="text/css">
	.st0{fill:#FFFFFF;}
</style>
<g>
	<path class="st0" d="M244.5,245c-2.4-4.1-5.7-7.2-9.7-9.6c-2.8-1.6-6.9-3.1-12.3-4.5c5-1.6,9-3.8,12-6.4c3-2.5,5.4-5.6,7-8.8
		c1.6-3.4,2.5-7,2.5-10.7c0-5.1-1.5-9.9-4.5-14.2c-3.1-4.3-7.5-7.6-13.1-9.9c-2.2-0.9-4.8-1.6-7.7-2.2v-20h-19.4v18.7h-12.4v-18.7
		h-19.3v18.7H138v15.7h4.4c3,0,5.1,0.3,6.1,0.9c1,0.5,1.8,1.2,2.3,2.2c0.4,0.9,0.7,3.1,0.7,6.4v63.4c0,3.3-0.3,5.5-0.7,6.4
		c-0.5,0.9-1.2,1.7-2.3,2.2c-1,0.5-3.1,0.8-6.1,0.8H138v15.7h29.5v18.7h19.3v-18.7h12.5v18.7h19.3v-20.3c3.2-0.7,6.1-1.4,8.5-2.4
		c6.7-2.6,11.8-6.5,15.5-11.6c3.7-5.1,5.5-10.6,5.5-16.6C248.1,253.7,246.9,249.2,244.5,245z M179.7,195.8h12.6
		c7.3,0,12.4,0.5,15.2,1.3c2.8,0.9,5,2.4,6.5,4.5c1.4,2.2,2.2,4.7,2.2,7.7c0,2.8-0.8,5.4-2.4,7.6c-1.6,2.2-3.9,3.8-7.1,4.9
		c-3.1,1-7.9,1.6-14.5,1.6h-12.6V195.8z M215.1,265.9c-2.2,2.8-4.9,4.7-8.1,5.5c-3.1,0.9-7.2,1.4-12,1.4h-8.3
		c-2.7,0-4.4-0.2-5.1-0.5c-0.7-0.3-1-0.9-1.3-1.6c-0.3-0.6-0.4-2.6-0.5-6.1v-24.5h14.9c6.4,0,11.3,0.6,14.5,1.8
		c3.1,1.1,5.5,2.9,7,5.2c1.6,2.4,2.4,5.3,2.4,8.6C218.4,259.7,217.3,263.1,215.1,265.9z"/>
	<path class="st0" d="M0,0v447.2h183.3c0,0-184.2-103.1-11.6-347.6C171.7,99.6,127.9-2.6,0,0z"/>
	<path class="st0" d="M114,0.1c-0.7,0-1,1-0.3,1.3c11.8,4.5,48.7,22.8,85.6,85.8c12,20.7,23.8,41.5,35.5,62.4
		c8.9,15.8,17.7,31.6,26.2,47.5c13.1,24.5,29.9,57.7,12.8,85.3c-0.4,0.6,0.3,1.3,0.9,1C342,245.4,374,170.6,364.3,95.7
		c-3.9-30.3-8.5-53.3-35.5-71.6c-27.1-18.4-58.5-24-90.7-24H114z"/>
	<path class="st0" d="M139.3,324.6c-0.1-0.7,0.7-1.3,1.3-0.8c6,4.7,27.9,19.7,56.6,17.3c0,0,194.7-4.5,194.4-227.3
		c0-2.4,2.1-1.8,3.2-0.7c2.8,2.6,4.4,7.5,5.8,10.9c5.6,13.2,8.2,27.7,10.6,41.8c2,11.8,3.6,23.6,4.7,35.5c1.3,14.4,2,28.8,1.7,43.2
		c-0.3,15.7-1.5,31.5-4.1,47c-2.7,16-6.8,31.9-12.8,47c-6.1,15.4-14.1,30-24.3,43.1c-10.8,13.9-23.9,25.8-38.6,35.4
		c-17.1,11-36.1,18.7-55.8,23.8c-12.3,3.1-24.9,5.3-37.5,6.5c-0.1,0-0.2,0-0.3,0C240.1,445.8,156.1,417.4,139.3,324.6z"/>
</g>
</svg>
